<svg width="64" height="64" viewBox="0 0 64 64" fill="none" xmlns="http://www.w3.org/2000/svg">
<rect width="64" height="64" rx="8" fill="#6700C2"/>
<path d="M31.7637 3C31.9295 3.0637 32.839 3.64078 33.0157 3.75364C35.5112 5.34381 37.8246 7.20358 39.9142 9.29937C46.5787 15.9941 50.6492 24.838 51.4 34.2546C51.5468 35.9802 51.5425 37.7244 51.543 39.4542L51.5434 44.7114L51.5444 61L48.8584 60.9957C48.3134 51.8519 46.0933 40.6715 39.5292 33.7587C37.5402 31.6639 34.8023 30.0968 31.8447 30.0639C29.234 30.0557 26.8234 31.1846 24.8963 32.924C19.1998 38.0655 16.59 46.7395 15.3883 54.0811C15.0089 56.3983 14.8314 58.6908 14.6736 60.9995L12.0004 60.9948L12 45.7243L12.0007 39.5695C12.001 37.8397 11.9835 36.1536 12.1132 34.4247C12.3007 31.9736 12.7116 29.5449 13.341 27.1687C16.0473 16.9948 22.6706 8.30562 31.7637 3Z" fill="white"/>
<path d="M30.2839 60.8965C36.1742 61.7096 41.6258 57.6434 42.5237 51.7669C43.4219 45.8904 39.4335 40.3821 33.5691 39.3998C29.6997 38.7516 25.7811 40.237 23.3142 43.2868C20.8472 46.3366 20.2141 50.4784 21.6576 54.1255C23.1011 57.7728 26.3976 60.3601 30.2839 60.8965Z" fill="#80C705"/>
</svg>
