<svg width="569" height="399" viewBox="0 0 569 399" fill="none" xmlns="http://www.w3.org/2000/svg">
<g clip-path="url(#clip0_156_9)">
<path d="M489.336 194.637C487.09 194.192 481.226 194.357 478.696 194.357L458.84 194.35L383.824 194.404L382.413 217.281C382.201 220.764 382.062 226.435 381.56 229.676L381.028 230.082C373.804 229.651 366.577 229.353 359.343 229.188C350.764 228.695 342.19 228.684 333.572 228.135C330.496 228.167 326.837 227.905 323.725 227.757C320.214 227.973 312.624 227.592 308.779 227.47C303.647 227.304 295.866 227.312 290.939 226.733L288.715 226.701C276.992 226.499 264.593 225.734 252.734 225.403C221.285 226.215 187.928 228.296 158.563 241.629C154.747 243.361 152.22 244.145 148.206 245.19L47.937 270.304L16.2258 278.249C12.4667 279.191 3.53258 281.685 -8.01086e-05 282.174V399.043C3.2307 398.212 9.91154 395.553 13.3508 394.335L45.6047 382.73L130.708 352.356C143.046 347.965 155.958 342.829 168.349 338.829C182.332 343.07 196.614 349.427 211.345 352.442C218.371 353.88 223.948 354.437 231.017 355.35L258.222 359.062L300.33 365.053C310.291 366.476 327.908 369.631 337.007 368.568C345.517 367.572 360.352 361.815 369.348 359.134C383.185 355.127 397.243 351.932 411.452 349.567C425.084 347.26 439.435 346.541 453.13 344.565C458.457 343.53 466.456 343.684 471.334 341.205C496.128 328.594 518.534 311.625 542.054 296.89C545.298 294.856 554.095 292.693 558.241 291.011C557.725 289.936 557.006 288.801 556.394 287.762C560.179 283.795 565.429 281.595 569.395 277.883C555.317 256.809 532.648 260.313 512.816 270.943C510.542 271.906 508.43 272.755 505.995 273.197C497.331 274.771 488.872 276.873 480.445 279.453C480.57 271.209 481.334 266.164 482.237 258.038L485.903 226.194L487.927 205.997C488.233 202.86 488.55 197.527 489.336 194.637Z" fill="#B7724D"/>
<path d="M489.336 194.637C487.09 194.192 481.226 194.357 478.697 194.357L458.84 194.35L383.824 194.404L382.413 217.281C382.201 220.764 382.062 226.435 381.56 229.676L381.029 230.082C386.668 230.783 391.526 231.358 395.181 236.253C401.648 244.914 395.002 256.759 387.223 261.98C384.614 263.731 381.856 264.978 379.424 266.634C378.802 276.679 377.546 290.554 377.561 300.34C388.973 299.481 400.37 298.432 411.747 297.188C419.668 296.373 432.317 295.331 439.756 293.221C453.208 289.408 466.976 283.539 480.445 279.453C480.57 271.209 481.334 266.164 482.237 258.038L485.903 226.194L487.927 205.997C488.233 202.86 488.55 197.527 489.336 194.637Z" fill="#6700C2"/>
<path d="M430.74 200.351C429.131 200.772 423.876 206.522 422.438 207.988C424.767 210.575 427.429 213.432 430.087 215.657C432.279 214.676 436.569 210.044 438.438 208.142C436.017 205.602 433.341 202.651 430.74 200.351Z" fill="#D9ADFF"/>
<path d="M415.065 267.845C413.562 268.115 408.02 274.102 406.607 275.543C408.841 277.991 411.87 280.84 414.263 283.22C416.061 283.011 420.976 277.099 422.513 275.414C420.084 273.107 417.436 270.268 415.065 267.845Z" fill="#D9ADFF"/>
<path d="M414.7 223.358C413.642 224.013 407.947 230.104 406.595 231.383C409.16 234.071 411.776 236.709 414.442 239.297C415.519 238.679 421.423 232.763 422.644 231.574C419.958 228.871 417.31 226.133 414.7 223.358Z" fill="#D9ADFF"/>
<path d="M398.48 200.261C396.933 200.495 391.693 206.536 390.296 208.045C392.779 210.705 394.905 212.807 397.529 215.294L398.359 215.535C400.852 214.665 404.214 209.957 405.778 207.815C403.356 205.408 400.912 202.727 398.48 200.261Z" fill="#D9ADFF"/>
<path d="M390.428 272.532C388.499 273.98 384.153 278.72 382.327 280.693L390.355 288.409C391.589 288.218 396.952 281.509 397.983 280.219L390.428 272.532Z" fill="#D9ADFF"/>
<path d="M430.6 243.465C428.878 244.813 424.246 249.492 422.408 251.257C424.49 253.823 427.656 256.787 430.072 259.138C431.711 258.807 436.826 252.759 438.279 251.113C435.617 248.622 433.145 246.071 430.6 243.465Z" fill="#D9ADFF"/>
<path d="M454.22 270.724C453.225 271.306 447.474 277.38 446.084 278.688C448.564 281.211 451.382 283.823 453.946 286.296C455.878 285.796 460.557 280.104 461.915 278.397L454.22 270.724Z" fill="#D9ADFF"/>
<path d="M446.606 223.682C444.851 224.476 439.917 229.716 438.292 231.344C441.02 234.495 443.041 236.422 446.231 239.063C447.635 238.384 452.618 232.921 454.006 231.455C451.585 228.821 449.118 226.23 446.606 223.682Z" fill="#D9ADFF"/>
<path d="M465.223 239.164C463.796 240.389 459.147 245.338 457.449 247.016L465.589 255.188C467.698 252.802 470.968 249.183 473.352 247.228C471.281 244.942 467.554 241.007 465.223 239.164Z" fill="#D9ADFF"/>
<path d="M465.848 200.305C463.497 201.986 459.801 205.756 457.378 207.92C460.006 210.536 462.582 213.206 465.106 215.923C467.059 215.255 471.906 209.368 473.277 207.776C470.117 205.045 468.644 203.456 465.848 200.305Z" fill="#D9ADFF"/>
<path d="M359.249 270.53C351.379 271.012 343.074 271.942 335.275 272.28C325.615 272.697 315.901 272.808 306.206 273.225C321.943 288.635 337.173 297.145 359.379 299.941C359.177 290.288 359.361 280.269 359.249 270.53Z" fill="#6700C2"/>
<path d="M336.034 272.535C334.158 272.816 329.173 278.896 327.578 280.711L335.081 288.121C336.368 288.38 342.111 281.789 343.351 280.47C340.882 277.926 338.212 275.31 336.034 272.535Z" fill="#D9ADFF"/>
<path d="M569.395 277.883C555.317 256.809 532.648 260.313 512.816 270.943C513.124 271.267 513.433 271.594 513.741 271.921C527.303 273.046 542.179 273.552 552.813 283.349C553.803 284.262 555.763 286.493 556.394 287.762C560.179 283.795 565.429 281.595 569.395 277.883Z" fill="#BE815F"/>
<path d="M379.423 266.634C372.183 269.168 366.807 269.696 359.249 270.53C359.361 280.269 359.177 290.288 359.378 299.941C365.434 300.254 371.497 300.387 377.561 300.34C377.546 290.554 378.802 276.679 379.423 266.634Z" fill="#80C705"/>
<path d="M376 81.9562C382.318 66.0676 409.309 25.4449 385.92 13.8324C377.059 9.43365 358.958 12.2016 356.195 23.8428C351.76 42.522 366.307 64.5294 371.252 81.934L370.915 81.5566C358.66 67.6955 346.718 38.1718 326.654 36.063C312.484 34.5734 298.845 60.0617 311.805 70.9292C323.657 80.8695 345.694 81.9164 360.202 84.451C359.742 86.8233 359.522 88.3334 359.303 90.7397C355.749 91.2921 340.871 90.7728 336.386 90.7649L276.392 90.8961C270.117 90.8961 251.038 90.486 245.78 91.3147C245.353 95.7825 246.172 105.696 246.488 110.514L248.422 143.85C248.788 150.337 249.676 156.819 249.392 163.383C247.624 163.427 246.502 163.307 244.892 164.029C243.247 166.141 244.26 188.147 244.368 192.244C244.425 194.468 249.442 193.904 251.397 194.691C251.735 197.081 253.219 224.825 253.054 225.209L252.734 225.403C264.593 225.734 276.992 226.499 288.715 226.701L290.939 226.733C295.866 227.312 303.647 227.304 308.779 227.47C312.624 227.592 320.214 227.973 323.725 227.757C326.837 227.905 330.496 228.167 333.572 228.135C342.19 228.684 350.764 228.695 359.343 229.188C366.577 229.353 373.804 229.651 381.028 230.082L381.56 229.676C382.062 226.435 382.201 220.764 382.413 217.281L383.824 194.404L458.84 194.35L478.696 194.357C481.226 194.357 487.09 194.192 489.336 194.637C491.387 194.31 493.516 193.897 495.569 193.53C496.194 190.357 497.852 180.679 497.264 177.833C495.942 176.541 493.393 176.45 491.571 176.255C491.445 171.096 493.53 155.422 494.215 149.163C496.464 129.92 498.501 110.652 500.326 91.3636C491.416 90.21 474.57 90.9837 465.047 90.872C440.287 90.5809 414.949 91.3212 390.228 90.7516C389.806 89.074 390.04 87.4098 390.238 85.679C404.845 83.0983 429.681 84.4471 439.616 71.46C445.931 63.2048 439.566 47.8573 431.548 42.7323C427.596 40.2066 422.104 39.3189 417.424 40.5239C403.459 44.6441 392.536 63.1106 383.233 73.5695C380.664 76.4575 378.842 79.4518 376 81.9562Z" fill="#80C705"/>
<path d="M500.326 91.3636C491.416 90.21 474.57 90.9837 465.047 90.872C440.287 90.5809 414.949 91.3212 390.228 90.7516C389.794 92.1826 389.718 94.98 389.646 96.5601C388.524 121.277 386.159 146.205 385.225 170.904C411.717 172.159 438.201 173.549 464.678 175.075C468.156 175.259 489.113 176.699 491.571 176.255C491.445 171.096 493.53 155.422 494.215 149.163C496.464 129.919 498.501 110.652 500.326 91.3636Z" fill="#6700C2"/>
<path d="M414.814 155.382C413.847 155.812 407.811 162.148 406.682 163.298C408.644 165.677 412.081 169.103 414.294 171.441C415.745 170.473 421.127 164.828 422.617 163.308C419.976 160.783 417.366 158.013 414.814 155.382Z" fill="#D9ADFF"/>
<path d="M446.032 114.101C443.261 117.035 440.793 119.624 437.924 122.469C440.865 124.987 443.185 127.319 445.78 130.171L446.072 130.217C446.991 129.839 452.85 123.652 453.89 122.607C451.625 119.924 448.477 116.721 446.032 114.101Z" fill="#D9ADFF"/>
<path d="M473.415 155.388C471.651 156.649 467.193 161.614 465.524 163.421C468.146 165.906 470.795 168.812 473.296 171.451C476.032 168.722 478.751 165.978 481.455 163.219C478.745 160.64 476.064 158.029 473.415 155.388Z" fill="#D9ADFF"/>
<path d="M473.349 101.526C471.387 102.992 467.227 107.573 465.392 109.516C468.306 112.269 470.552 114.471 473.278 117.434C475.081 116.53 479.607 110.989 481.151 109.122C478.955 106.711 475.76 103.826 473.349 101.526Z" fill="#D9ADFF"/>
<path d="M438.542 139.958C435.562 142.702 433.129 145.013 430.318 147.948L438.125 155.669C439.904 154.83 444.557 149.398 446.141 147.621L438.542 139.958Z" fill="#D9ADFF"/>
<path d="M473.557 125.87C472.493 126.187 466.875 132.119 465.236 133.529C467.782 136.152 470.565 138.731 473.218 141.259L473.816 141.28C476.352 138.759 478.704 136.142 481.111 133.501C478.924 131.023 475.946 128.23 473.557 125.87Z" fill="#D9ADFF"/>
<path d="M398.368 133.499C395.553 136.022 392.826 138.64 390.191 141.35L397.928 149.14C399.921 148.554 404.549 142.793 405.903 141.031C403.219 138.602 400.867 136.105 398.368 133.499Z" fill="#D9ADFF"/>
<path d="M423.044 101.424C421.151 102.405 416.141 108.043 414.663 109.776C417.226 112.093 419.818 114.78 422.278 117.235C423.353 116.768 428.646 111.19 430.482 109.76C427.937 107.011 425.405 104.337 423.044 101.424Z" fill="#D9ADFF"/>
<path d="M359.303 90.7397C355.749 91.2921 340.871 90.7728 336.386 90.7649L276.392 90.896C270.117 90.896 251.038 90.486 245.78 91.3147C245.353 95.7825 246.172 105.696 246.488 110.514L248.422 143.85C248.788 150.337 249.676 156.819 249.392 163.383C251.649 163.824 258.441 164.1 261.086 164.239L282.692 165.33L359.271 169.492C359.605 147.972 359.123 126.346 359.343 104.818C359.393 100.207 359.486 95.32 359.303 90.7397Z" fill="#6700C2"/>
<path d="M336.885 147.864C335.29 148.364 330.205 154.178 328.584 155.832L336.149 163.372L336.86 163.365C339.422 161.179 342.003 158.386 344.371 155.945C342.147 152.994 339.491 150.485 336.885 147.864Z" fill="#D9ADFF"/>
<path d="M271.468 95.7127C269.528 97.2767 265.007 102.003 263.034 103.975C265.485 105.86 268.773 109.308 271.055 111.567C272.687 111.192 277.704 105.233 279.112 103.665C276.55 101.028 274.002 98.3771 271.468 95.7127Z" fill="#D9ADFF"/>
<path d="M299.78 147.505C296.934 149.73 294.008 152.793 291.41 155.367C293.847 157.973 296.901 160.885 299.46 163.438C299.938 163.333 306.41 156.341 307.399 155.345C304.897 152.693 302.357 150.08 299.78 147.505Z" fill="#D9ADFF"/>
<path d="M344.698 125.566C343.62 126.251 337.644 132.456 336.386 133.743L344.364 141.341C345.273 141.109 351.142 134.843 352.302 133.678C349.97 130.793 347.307 128.206 344.698 125.566Z" fill="#D9ADFF"/>
<path d="M307.762 96.0804C306.285 96.5591 300.635 102.326 299.165 103.726L306.82 111.433L307.384 111.538C309.781 109.676 313.134 105.943 315.136 103.604C312.538 101.237 310.169 98.6391 307.762 96.0804Z" fill="#D9ADFF"/>
<path d="M283.755 122.46C281.024 124.842 278.257 127.722 275.673 130.298C278.286 133.013 280.927 135.701 283.597 138.363C285.214 137.596 290.098 131.798 291.41 130.176L283.755 122.46Z" fill="#D9ADFF"/>
<path d="M263.505 139.963C260.773 142.362 257.985 145.332 255.415 147.949C257.751 150.457 260.849 153.228 263.379 155.611C266.541 153.233 268.525 151.018 271.098 148.018C269.01 145.463 265.938 142.155 263.505 139.963Z" fill="#D9ADFF"/>
<path d="M315.308 122.309C314.277 122.748 308.301 129.368 307.201 130.521C309.763 133.061 312.372 135.554 315.028 137.999C316.976 137.122 321.385 131.772 322.963 129.913C320.412 127.579 317.759 124.787 315.308 122.309Z" fill="#D9ADFF"/>
<path d="M344.795 96.0585C342.833 97.1111 338.33 101.95 336.558 103.764C339.282 106.804 341.076 108.485 344.069 111.232C344.386 111.326 344.601 111.256 344.968 111.223C347.774 108.98 349.862 106.534 352.126 103.769C349.747 101.138 347.304 98.5669 344.795 96.0585Z" fill="#D9ADFF"/>
<path d="M359.393 194.497C350.2 194.267 253.277 193.908 251.397 194.691C251.735 197.081 253.219 224.825 253.054 225.209L252.734 225.403C264.594 225.734 276.992 226.499 288.715 226.701L290.939 226.733C295.866 227.312 303.647 227.304 308.779 227.47C312.624 227.592 320.214 227.973 323.725 227.757C326.837 227.905 330.496 228.167 333.572 228.135C342.19 228.684 350.764 228.695 359.343 229.188L359.393 194.497Z" fill="#6700C2"/>
<path d="M328.339 223.535C326.869 225.957 326.154 226.366 323.725 227.757C326.837 227.905 330.496 228.167 333.572 228.135C331.872 226.747 330.003 225.012 328.339 223.535Z" fill="#D9ADFF"/>
<path d="M291.687 223.527C290.587 224.616 289.671 225.472 288.715 226.701L290.939 226.733C292.506 226.686 292.952 226.949 294.026 226.223C293.62 225.145 292.56 224.343 291.687 223.527Z" fill="#D9ADFF"/>
<path d="M307.474 200.326C306.094 201.052 300.452 206.773 299.007 208.182C301.699 210.716 304.365 213.278 307.007 215.869C309.609 214.335 313.163 210.148 315.237 207.844C312.606 205.469 310.008 202.824 307.474 200.326Z" fill="#D9ADFF"/>
<path d="M276.244 200.323C274.839 200.635 269.136 206.507 267.573 208.027C270.25 210.712 272.607 213.026 275.446 215.567C276.988 215.431 282.289 209.494 283.683 208.035C281.164 205.505 278.681 202.935 276.244 200.323Z" fill="#D9ADFF"/>
<path d="M345.022 200.233C343.25 200.858 337.971 206.468 336.353 208.063C338.988 210.877 341.212 212.872 344.069 215.423C344.447 215.743 344.188 215.603 344.921 215.635C347.516 213.447 350.057 210.493 352.206 207.877C349.305 205.012 347.634 203.428 345.022 200.233Z" fill="#D9ADFF"/>
</g>
<defs>
<clipPath id="clip0_156_9">
<rect width="569" height="399" fill="white" transform="matrix(-1 0 0 1 569 0)"/>
</clipPath>
</defs>
</svg>
