<svg width="381" height="616" viewBox="0 0 381 616" fill="none" xmlns="http://www.w3.org/2000/svg">
<path d="M107.104 60.5234C109.041 55.8813 123.828 32.7153 127.358 30.1713C128.819 30.1903 130.487 30.6004 131.863 31.111C147.566 36.9433 163.111 43.1975 178.786 49.1103C182.679 50.5791 187.27 52.0658 190.9 54.0158C196.554 55.8324 202.943 58.6122 208.632 60.7038C211.238 61.6619 218.476 64.2932 220.653 65.4788C228.269 67.786 237.393 71.6981 244.936 74.6134L284.874 90.004L308.794 99.2701C316.33 102.249 318.191 102.073 323.564 108.564C337.026 124.821 350.219 141.331 363.922 157.384C365.072 158.732 366.384 160.61 365.417 162.304C362.761 167.456 359.207 172.326 355.969 177.17L336.703 205.964C333.551 210.626 329.62 215.804 326.762 220.495C327.532 224.307 329.548 228.165 330.683 231.914C333.99 242.829 338.288 255.736 338.751 267.181L339.114 268.2C348.738 291.587 360.641 330.667 349.913 354.864C337.292 383.334 313.523 412.856 294.76 437.869C292.352 441.082 283.717 452.258 280.899 454.332L281.003 454.889C281.887 457.343 282.333 464.761 282.606 467.751L284.701 490.406L290.829 554.511C292.802 574.449 295.127 595.627 296.676 615.548C292.18 615.979 285.039 615.777 280.324 615.777L252.476 615.763L156.493 615.835C156.578 609.751 157.292 602.477 157.708 596.321L159.062 572.789L164.354 481.378L166.309 448.808C166.561 444.672 167.337 436.963 167.092 433.032C166.786 428.133 164.067 419.749 162.688 414.621C160.317 405.87 158.058 397.091 155.911 388.282C152.986 376.491 150.364 364.628 148.047 352.701C146.831 346.253 142.395 314.711 139.365 312.016C136.676 311.107 134.71 310.251 132.105 309.094C129.572 308.307 126.798 307.197 124.312 306.205C116.199 302.967 107.82 300.063 99.782 296.656L98.1644 296.221C97.5096 296.049 96.6396 295.862 96.0215 295.617C82.6552 290.329 69.1575 285.381 55.765 280.163C51.0611 278.33 48.2257 277.18 44.8831 273.196C34.1662 260.422 23.5862 247.528 12.9767 234.664C10.0536 231.12 6.59567 227.522 4.61228 223.4C3.00372 222.592 0.979 221.893 0.165375 220.433C0.205625 219.212 0.707672 218.784 1.45266 217.798C5.37344 212.1 9.88143 204.557 13.8457 198.553L38.3483 161.991C41.6002 157.082 52.0979 140.661 55.788 137.213C53.0909 131.018 46.4115 126.524 43.9707 118.845C42.4085 114.062 42.8634 108.849 45.2299 104.409C50.7517 94.2805 64.579 90.5297 74.5783 96.1234C75.748 96.8307 76.0808 96.932 76.8495 98.0913C77.4702 98.5366 79.1219 99.7869 79.7199 100.118L81.7284 97.6353C80.6668 95.6634 79.3145 92.8283 78.5997 90.7191C76.2397 83.6818 76.7956 75.9923 80.1432 69.3676C83.8203 61.9986 90.7279 56.2619 99.4068 57.5125C102.401 57.9441 104.468 59.1498 107.104 60.5234Z" fill="#6700C2"/>
<path d="M282.7 205.709C286.06 190.017 308.557 192.554 310.648 198.084C313.347 199.958 314.637 201.259 316.574 203.995C319.169 205.397 325.127 217.312 326.763 220.495C327.532 224.307 329.548 228.165 330.683 231.914C333.99 242.829 338.288 255.736 338.751 267.181L339.114 268.2C348.738 291.587 360.641 330.667 349.913 354.864C337.292 383.334 313.523 412.856 294.76 437.869C292.352 441.082 283.717 452.258 280.899 454.332L281.003 454.889C281.887 457.343 282.333 464.761 282.606 467.751L284.701 490.406L290.829 554.511C292.802 574.449 295.127 595.627 296.676 615.547C292.18 615.979 285.039 615.777 280.324 615.777L252.476 615.763L156.493 615.835C156.578 609.751 157.292 602.477 157.708 596.321L159.062 572.789L164.354 481.378L166.309 448.808C166.561 444.672 167.337 436.963 167.092 433.032C166.786 428.133 164.067 419.749 162.688 414.621C160.317 405.87 158.058 397.091 155.911 388.282C152.986 376.491 150.364 364.628 148.047 352.701C146.831 346.253 142.395 314.711 139.365 312.016C140.804 308.839 129.453 287.887 131.963 277.131L131.863 275.782C131.455 274.183 132.114 273.786 131.391 272.002C132.429 271.085 132.699 269.627 132.92 268.298C138.528 262.298 141.663 259.279 150.779 258.888C158.868 258.541 166.73 260.895 172.672 266.566C179.046 272.65 182.427 282.676 187.588 289.361C188.13 292.882 191.653 295.344 193.367 298.025L219.047 329.14C224.021 335.177 230.288 342.394 234.903 348.582C236.315 350.002 236.944 350.843 238.119 352.41C239.021 351.626 240.394 350.609 240.854 349.592L240.613 348.977C242.5 347.447 269.101 307.599 270.826 303.905C273.068 299.1 280.101 262.156 281.409 255.028C282.117 251.7 282.297 242.754 282.387 238.848C282.628 228.001 283.088 216.508 282.7 205.709Z" fill="#8C4E27"/>
<path d="M131.863 275.782C136.139 267.865 145.8 260.533 155.024 265.623C162.648 269.829 164.307 280.251 166.497 287.813C168.95 296.318 167.492 297.389 159.721 299.783C156.522 300.771 145.118 305.612 143.226 303.254C140.202 299.484 133.281 281.514 131.963 277.131L131.863 275.782Z" fill="#F6F3D3"/>
<path d="M146.841 265.797C151.008 265.525 152.76 265.916 156.383 268.406C161.526 271.94 165.694 289.272 166.18 295.298C162.263 297.634 155.71 299.614 151.261 300.997C148.954 301.691 146.285 302.78 144.012 302.126C142.368 300.034 134.973 280.972 133.101 276.48C137.024 270.71 139.802 267.349 146.841 265.797Z" fill="#8C4E27"/>
<path d="M316.574 203.995C318.346 207.263 323.489 216.26 322.957 219.698C318.482 225.457 306.019 225.553 303.36 217.916C301.984 213.955 296.485 199.941 297.527 196.74C300.55 193.814 307.446 196.435 310.648 198.084C313.347 199.958 314.637 201.259 316.574 203.995Z" fill="#F6F3D3"/>
<path d="M298.968 197.054C304.492 196.894 306.903 197.541 311.64 200.61C315.004 202.79 321.228 215.581 321.57 218.785C321.02 219.949 321.106 219.627 319.848 220.452C316.747 221.82 309.538 223.454 307.22 220.801C303.493 216.535 299.288 202.427 298.968 197.054Z" fill="#8C4E27"/>
<path d="M193.367 298.025L219.047 329.14C224.021 335.177 230.288 342.394 234.903 348.582C232.761 348.834 216.56 342.225 213.628 340.999C210.803 336.665 206.332 326.481 203.651 321.41C200.194 314.88 196.162 306.905 193.225 300.12C192.683 298.866 192.867 299.017 193.367 298.025Z" fill="#80C705"/>
<path d="M338.751 267.181L339.114 268.2C339.017 274.257 337.486 287.008 336.926 293.587C338.385 294.054 341.274 294.651 341.626 296.239C340.138 296.882 338.015 295.643 336.606 295.003C335.524 305.59 334.866 313.543 333.31 324.224C334.733 324.231 336.067 324.066 337.267 324.774L337.213 325.216C335.617 326.028 334.331 325.884 332.52 325.934C331.057 330.222 317.685 358.706 315.324 361.124L314.917 361.002C314.975 358.645 329.037 330.987 331.183 325.144C334.658 315.692 335.47 272.012 338.751 267.181Z" fill="#F6F3D3"/>
<path d="M280.899 454.332L281.003 454.889C279.354 457.749 271.458 461.21 268.378 462.691C259.286 467.054 248.972 468.247 239 468.308C236.477 468.322 232.538 468.718 230.198 468.071L229.965 467.575C231.248 466.425 244.06 466.658 246.82 466.453C249.637 466.238 252.437 465.85 255.207 465.289C268.738 462.547 270.459 459.119 280.899 454.332Z" fill="#F6F3D3"/>
<path d="M213.541 342.013C218.26 344.241 225.297 379.568 226.256 386.097C227.126 391.675 227.579 397.306 227.604 402.948C226.925 403.092 227.022 403.038 226.306 402.995C225.868 402.557 225.595 402.061 225.57 401.443C225.297 395.549 224.657 389.777 223.769 383.938C222.328 374.439 219.744 365.171 217.29 355.895C216.082 351.339 213.958 346.703 213.541 342.013Z" fill="#F6F3D3"/>
<path d="M347.951 296.566L348.3 297.001C348.839 300.246 347.621 305.583 347.01 308.99C343.434 328.892 334.856 352.913 323.269 369.57L322.781 368.675C323.205 366.932 329.041 356.859 330.536 353.79C334.787 345.197 338.316 336.259 341.076 327.074C342.438 322.596 343.405 318.226 344.505 313.78C345.403 310.14 346.291 298.96 347.951 296.566Z" fill="#F6F3D3"/>
<path d="M154.928 337.118C156.312 337.438 161.276 342.081 165.421 342.728C171.651 343.706 175.13 339.371 177.468 339.655L177.754 340.428C176.168 341.578 174.859 342.275 173.076 343.091C167.32 345.729 157.147 343.777 154.928 337.118Z" fill="#F6F3D3"/>
<path d="M178.161 344.072L178.616 344.536L178.486 345.103C172.162 350.307 163.642 351.295 155.944 349.057C155.305 348.41 155.47 348.805 155.315 347.925C156.476 347.547 158.89 348.288 160.319 348.446C167.628 349.258 171.892 347.134 178.161 344.072Z" fill="#F6F3D3"/>
<path d="M307.054 300.545C310.501 302.622 312.556 306.23 318.199 308.555C322.561 310.355 325.821 309.763 328.448 310.895L328.556 311.7C322.378 312.731 307.062 306.866 307.054 300.545Z" fill="#F6F3D3"/>
<path d="M304.284 312.889C307.439 312.393 320.279 314.981 321.929 317.457C321.684 317.529 321.242 317.676 321.023 317.604C317.875 316.598 306.102 314.812 304.284 312.889Z" fill="#F6F3D3"/>
<path d="M307.938 241.951C308.136 241.978 308.628 242.032 308.733 242.136C310.397 243.759 317.954 245.793 318.695 247.276C315.518 247.408 308.661 245.488 307.938 241.951Z" fill="#F6F3D3"/>
<path d="M343.301 343.31C345.342 343.573 348.803 345.136 349.277 347.335C347.222 346.979 344.077 345.323 343.301 343.31Z" fill="#F6F3D3"/>
<path d="M220.653 65.4788C228.269 67.7859 237.393 71.6981 244.936 74.6134L284.874 90.0039L308.794 99.2701C316.33 102.249 318.191 102.073 323.564 108.564C337.026 124.821 350.219 141.331 363.922 157.384C365.072 158.732 366.384 160.61 365.417 162.304C362.761 167.456 359.207 172.326 355.969 177.17L336.703 205.964C333.551 210.626 329.62 215.804 326.762 220.495C325.127 217.312 319.169 205.397 316.574 203.995C314.637 201.259 313.347 199.958 310.648 198.084C308.557 192.554 286.06 190.017 282.7 205.709C283.088 216.508 282.628 228.001 282.387 238.848C282.297 242.754 282.117 251.7 281.409 255.028C280.101 262.156 273.068 299.1 270.826 303.905C269.101 307.599 242.5 347.447 240.613 348.977L240.854 349.592C240.394 350.609 239.021 351.626 238.119 352.41C236.944 350.843 236.315 350.002 234.903 348.582C230.288 342.394 224.021 335.177 219.047 329.14L193.367 298.025C191.653 295.344 188.13 292.882 187.588 289.361L191.151 290.862L223.291 241.735C229.598 232.108 236.383 222.104 242.432 212.357C246.78 206.642 255.786 192.34 259.789 185.922C256.275 184.1 252.544 182.735 248.911 180.886L248.803 179.489C248.897 179.135 249.019 178.745 249.019 178.384C248.983 159.855 239.391 143.269 222.454 135.249C218.044 133.16 211.895 130.893 207.083 130.218L202.731 128.896C203.723 127.162 212.528 120.252 213.599 122.01C218.278 129.693 223.697 137.641 234.216 134.689C258.585 127.849 263.685 96.1209 242.022 82.6048C232.635 76.7904 222.26 78.0245 212.165 80.4985L211.63 78.4907C213.477 77.2961 218.928 68.1464 220.653 65.4788Z" fill="#80C705"/>
<path d="M194.425 293.021C212.079 267.774 228.552 239.65 246.205 214.211L267.882 239.708C271.379 243.857 277.345 251.588 281.409 255.028C280.101 262.156 273.068 299.1 270.826 303.905C269.101 307.599 242.5 347.447 240.613 348.978C236.024 344.007 229.602 335.72 225.131 330.294L194.425 293.021Z" fill="#80C705"/>
<path d="M246.205 214.211C250.223 207.43 258.596 194.547 263.153 188.241C269.018 193.038 277.539 200.362 282.7 205.709C283.088 216.508 282.628 228.001 282.387 238.848C282.297 242.754 282.117 251.7 281.409 255.028C277.345 251.588 271.379 243.857 267.883 239.708L246.205 214.211Z" fill="#6700C2"/>
<path d="M313.681 103.823L316.858 105.965C302.35 129.334 286.239 152.097 271.523 175.375C268.803 179.677 265.795 183.905 263.153 188.241C258.596 194.547 250.223 207.43 246.205 214.211C228.552 239.65 212.079 267.774 194.425 293.021L225.131 330.294C229.602 335.72 236.024 344.007 240.613 348.977L240.854 349.592C240.394 350.609 239.021 351.626 238.119 352.41C236.944 350.843 236.315 350.002 234.903 348.582C230.288 342.394 224.021 335.177 219.047 329.14L193.367 298.025C191.653 295.344 188.13 292.882 187.588 289.361L191.151 290.862L223.291 241.735C229.598 232.108 236.383 222.104 242.432 212.357C246.78 206.642 255.786 192.34 259.789 185.922C272.439 167.1 284.561 147.729 297.168 128.896C301.94 121.765 308.711 110.392 313.681 103.823Z" fill="#040402"/>
<path d="M55.788 137.213C58.295 142.135 60.7122 141.632 64.1302 144.914C69.445 150.015 76.8362 153.876 82.1679 158.392C72.389 161.331 52.6733 168.048 50.9889 180.062C48.7899 182.994 46.2089 185.498 48.4036 189.145C48.9185 193.645 58.079 201.368 62.5676 201.93L64.0296 201.967C65.2137 202.706 65.3373 202.766 66.6444 203.257C66.8934 215.937 71.1667 218.53 81.0007 224.855C78.1081 229.094 71.2537 239.162 68.9508 243.632L99.3953 255.461C110.044 259.364 122.507 264.841 132.92 268.298C132.699 269.627 132.429 271.085 131.391 272.002C132.114 273.786 131.455 274.183 131.863 275.782L131.963 277.131C129.453 287.887 140.804 308.839 139.365 312.016C136.676 311.107 134.71 310.251 132.105 309.094C129.572 308.307 126.798 307.197 124.312 306.205C116.199 302.967 107.82 300.063 99.782 296.656L98.1644 296.221C97.5096 296.049 96.6396 295.862 96.0215 295.617C82.6552 290.329 69.1575 285.381 55.765 280.163C51.0611 278.33 48.2257 277.18 44.8831 273.196C34.1662 260.422 23.5862 247.528 12.9767 234.664C10.0536 231.12 6.59567 227.522 4.61228 223.4C3.00372 222.592 0.979 221.893 0.165375 220.433C0.205625 219.212 0.707672 218.784 1.45266 217.798C5.37344 212.1 9.88143 204.557 13.8457 198.553L38.3483 161.991C41.6002 157.082 52.0979 140.661 55.788 137.213Z" fill="#80C705"/>
<path d="M4.61229 223.4C9.06279 224.7 15.1639 227.263 19.6281 228.991L44.246 238.473L60.6248 244.765C62.5723 245.515 67.7962 247.418 69.5097 248.397C69.7857 250.06 71.7719 252.489 72.7778 254.03C74.8985 257.312 76.9908 260.612 79.055 263.93C84.8385 273.287 90.3804 282.823 96.3291 292.09C97.422 293.792 98.4674 295.129 99.782 296.656L98.1644 296.221C97.5096 296.049 96.6396 295.862 96.0215 295.618C82.6552 290.329 69.1575 285.381 55.765 280.163C51.0612 278.33 48.2257 277.181 44.8831 273.196C34.1662 260.422 23.5862 247.528 12.9767 234.664C10.0536 231.12 6.59568 227.522 4.61229 223.4Z" fill="#80C705"/>
<path d="M69.5096 248.397C77.339 250.936 93.1925 257.044 100.828 260.411C109.196 262.943 122.965 268.752 131.391 272.002C132.114 273.786 131.455 274.183 131.863 275.782L131.963 277.131C129.453 287.887 140.804 308.839 139.365 312.016C136.676 311.107 134.71 310.251 132.105 309.094C129.572 308.307 126.798 307.197 124.312 306.205C116.199 302.967 107.82 300.063 99.782 296.656C98.4674 295.129 97.4219 293.792 96.3291 292.09C90.3803 282.823 84.8384 273.287 79.055 263.93C76.9908 260.612 74.8985 257.312 72.7778 254.03C71.7719 252.489 69.7856 250.06 69.5096 248.397Z" fill="#6700C2"/>
<path d="M100.828 260.411C109.196 262.943 122.965 268.752 131.391 272.002C132.114 273.786 131.455 274.183 131.863 275.782L131.963 277.131C129.453 287.887 140.804 308.839 139.365 312.016C136.676 311.107 134.71 310.251 132.105 309.094C131.464 306.916 128.066 302.162 126.654 299.991C120.886 291.152 115.059 282.35 109.174 273.587C107.531 271.122 101.645 262.658 100.828 260.411Z" fill="#80C705"/>
<path d="M1.45266 217.798C17.0201 223.547 32.4678 229.789 47.9931 235.644C54.6973 238.172 62.2639 241.392 68.9508 243.632L99.3953 255.461C110.044 259.364 122.507 264.841 132.92 268.298C132.699 269.628 132.429 271.085 131.391 272.002C122.965 268.752 109.196 262.943 100.828 260.411C93.1925 257.044 77.339 250.936 69.5097 248.397C67.7962 247.418 62.5723 245.515 60.6248 244.765L44.2459 238.473L19.628 228.991C15.1639 227.263 9.06278 224.7 4.61228 223.4C3.00372 222.593 0.979 221.893 0.165375 220.433C0.205625 219.212 0.707672 218.784 1.45266 217.798Z" fill="#040402"/>
<path d="M166.525 202.862C167.243 205.207 168.974 207.124 170.458 209.024C181.613 223.308 199.519 226.168 216.003 221.021C220.517 219.602 224.772 217.475 228.617 214.72C235.054 210.104 235.248 207.912 242.432 212.358C236.383 222.104 229.598 232.108 223.291 241.735L191.151 290.862L187.588 289.361C182.427 282.676 179.046 272.65 172.672 266.566C166.73 260.895 158.868 258.541 150.779 258.888C141.663 259.279 138.528 262.298 132.92 268.298C122.507 264.841 110.044 259.364 99.3953 255.461C103.487 249.874 109.336 240.209 112.977 234.22C118.73 244.981 128.855 254.22 141.08 244.123C142.216 243.185 143.599 241.847 144.339 240.579C147.213 238.928 148.6 235.263 149.961 232.325C150.179 232.261 150.874 232.074 150.967 231.951C155.485 225.974 162.747 209.606 164.96 203.213L166.525 202.862Z" fill="#80C705"/>
<path d="M107.104 60.5234C109.041 55.8813 123.828 32.7153 127.358 30.1713C128.819 30.1903 130.487 30.6004 131.863 31.111C147.566 36.9433 163.111 43.1975 178.786 49.1103C182.679 50.5791 187.27 52.0658 190.9 54.0158C189.432 57.1251 188.711 58.4063 186.884 61.1961C185.889 62.7159 181.835 68.3531 181.395 69.5897L179.561 71.8376C178.666 71.4419 173.38 64.3942 171.846 62.8392C164.377 55.2657 152.686 49.9042 141.814 52.8054C120.445 58.5091 121.062 83.9384 125.727 101.285C121.304 96.7965 117.409 86.5626 116.157 80.4658C114.268 71.2698 114.009 67.52 107.104 60.5234Z" fill="#80C705"/>
<path d="M190.9 54.0157C196.554 55.8324 202.943 58.6121 208.632 60.7037C211.238 61.6618 218.476 64.2932 220.653 65.4787C218.928 68.1464 213.477 77.2961 211.63 78.4906C203.209 79.6144 198.379 84.4429 191.957 89.3366C191.909 88.6735 191.848 88.0115 191.775 87.3507C190.9 79.2424 187.58 74.5501 181.395 69.5896C181.835 68.353 185.889 62.7159 186.884 61.1961C188.711 58.4062 189.432 57.1251 190.9 54.0157Z" fill="#6700C2"/>
<path d="M161.308 197.571C155.714 187.851 151.939 178.98 148.842 168.181C148.303 166.302 147.323 163.889 148.253 162.137C149.191 161.713 148.721 161.708 149.687 162.034C150.64 163.377 150.927 165.519 151.402 167.141C154.091 176.337 157.39 185.472 162.268 193.751C163.436 195.733 166.559 200.714 166.525 202.862L164.96 203.213C162.747 209.606 155.485 225.974 150.967 231.951C150.874 232.074 150.179 232.261 149.961 232.325C148.6 235.263 147.213 238.928 144.339 240.579C143.535 237.969 147.188 231.719 148.086 228.534C151.583 216.127 151.617 206.926 161.308 197.571Z" fill="#040402"/>
<path d="M149.961 232.325C151.514 226.228 155.603 202.389 162.637 201.365C163.898 201.657 164.138 202.193 164.96 203.213C162.747 209.606 155.485 225.974 150.967 231.951C150.874 232.074 150.179 232.261 149.961 232.325Z" fill="#6700C2"/>
<path d="M74.5783 96.1234C75.748 96.8307 76.0808 96.932 76.8495 98.0913C69.8072 109.091 87.8374 120.436 94.0934 127.29C101.776 135.706 109.731 142.07 121.693 141.102C124.202 140.9 134.877 141.362 136.24 139.986C134.624 133.194 112.603 131.67 106.477 129.962C102.869 128.956 92.9319 124.997 92.4062 120.842C93.2388 119.768 92.7497 120.245 94.2095 119.605C96.4786 121.711 98.3786 123.749 101.239 125.128C114.091 131.329 129.803 126.844 139.908 139.098C138.408 141.132 137.916 141.667 136.084 143.385C125.554 144.254 109.299 145.343 101.185 137.461C92.3307 128.859 80.8379 120.199 74.0471 109.969C71.8352 106.637 73.1634 99.7057 74.5783 96.1234Z" fill="#040402"/>
<path d="M187.516 129.312C194.54 122.294 200.568 117.071 209.937 113.061C219.874 108.805 232.157 107.833 242.342 111.873C245.303 113.12 248.501 115.186 249.77 118.267C250.629 120.348 249.479 122.874 247.301 123.476L246.787 123.111C246.137 120.754 247.998 118.918 246.169 117.259C242.054 113.537 234.982 112.217 229.595 111.969C214.461 111.273 202.178 118.976 191.58 129.026C195.063 128.841 199.199 128.919 202.731 128.896L207.083 130.218C206.889 130.511 206.124 131.835 205.876 131.831C192.809 131.591 179.499 131.81 166.458 133.367C163.239 133.751 153.704 137.766 152.705 137.457C151.923 129.59 182.325 129.594 187.516 129.312Z" fill="#040402"/>
<path d="M50.9889 180.062C71.2354 164.038 98.9701 153.905 124.6 151.484C124.895 151.456 125.246 151.638 125.513 151.756C125.812 152.812 125.831 152.285 125.304 153.379C123.125 154.812 114.998 155.332 111.52 156.018C94.0888 159.435 77.4303 166.016 62.3696 175.434C59.1794 177.421 55.8779 179.555 53.0514 182.054C51.1611 183.725 49.7832 187.741 48.4036 189.145C46.2089 185.499 48.7899 182.994 50.9889 180.062Z" fill="#040402"/>
<path d="M181.395 69.5897C187.58 74.5502 190.9 79.2425 191.775 87.3508C191.848 88.0116 191.909 88.6736 191.957 89.3367C198.379 84.443 203.209 79.6145 211.63 78.4907L212.165 80.4986C211.561 81.02 204.043 84.015 202.013 85.178C198.444 87.2232 192.763 93.9586 189.964 94.535L189.372 94.1199C188.673 92.4851 189.371 89.6813 188.987 87.2476C187.959 80.7246 185.172 76.0409 179.948 72.1237L179.561 71.8376L181.395 69.5897Z" fill="#040402"/>
<path d="M62.5676 201.93C62.4979 199.556 63.208 199.119 64.9553 197.275C72.6129 189.193 92.6771 176.834 103.159 175.035L103.973 175.354L104.298 176.208C103.297 177.899 94.3896 180.874 91.7428 182.12C81.4262 187.082 72.0494 193.798 64.0296 201.966L62.5676 201.93Z" fill="#040402"/>
<path d="M248.911 180.886C248.807 181.482 248.685 182.075 248.548 182.663C246.586 190.714 243.007 198.281 238.022 204.901C236.836 206.501 235.614 208.888 233.393 207.75C233.221 205.941 235.934 202.428 237.07 201C242.054 194.724 243.79 187.587 246.546 180.283C246.87 179.431 248.027 179.553 248.803 179.489L248.911 180.886Z" fill="#040402"/>
<path d="M81.7284 97.6353C83.8961 101.828 84.648 105.404 86.4172 109.67C87.9596 113.39 90.84 117.427 92.331 121.158C84.5459 115.988 84.7263 107.105 79.7198 100.118L81.7284 97.6353Z" fill="#80C705"/>
<path d="M151.205 65.9381C153.12 66.9404 153.848 66.7338 156.049 66.47C156.919 67.0331 157.831 67.4101 158.894 68.0566C163.497 69.5599 171.206 83.5159 168.858 88.0609C164.843 95.8345 154.846 110.538 149.939 118.199C144.13 108.653 139.005 99.4502 135.994 88.5798C131.466 72.2326 137.048 69.57 151.205 65.9381Z" fill="#80C705"/>
<path d="M109.678 213.495C104.483 218.596 99.883 221.934 92.795 224.119C90.6916 224.767 82.6455 227.478 83.6579 222.063C87.4037 202.024 109.037 196.091 124.3 186.673C127.771 184.531 131.161 182.262 134.463 179.868C136.123 178.672 140.238 175.475 141.844 174.719C142.844 175.053 142.461 174.75 143.003 175.689C142.568 178.848 140.561 177.987 140.144 179.901L140.704 180.79C140.166 182.866 117.109 204.679 115.444 210.236C114.535 213.269 113.021 215.146 112.629 219.034C112.272 222.572 114.729 231.19 113.6 233.141C109.344 232.792 109.552 219.669 110.327 216.342C110.2 215.003 110.222 214.778 109.678 213.495Z" fill="#040402"/>
<path d="M130.458 186.011L130.565 187.733C125.382 193.351 114.849 204.283 111.954 210.819L110.772 210.976C108.691 209.39 108.006 210.811 106.364 212.523C100.397 218.745 94.5628 221.117 86.1286 222.789C91.2166 201.854 113.45 197.692 130.458 186.011Z" fill="#6700C2"/>
<path d="M130.458 186.011C132.114 184.738 133.792 183.495 135.492 182.281C133.774 184.52 132.58 185.721 130.565 187.733L130.458 186.011Z" fill="#848B97"/>
<path d="M110.772 210.976L111.954 210.819C111.095 213.092 110.828 213.951 110.327 216.342C110.2 215.002 110.222 214.777 109.678 213.495L110.772 210.976Z" fill="#A09ED4"/>
<path d="M106.897 63.1393L107.962 63.8232C108.356 65.0774 107.014 75.4558 107.533 79.5634C109.668 96.4408 126.372 108.21 138.571 118.606C135.811 114.05 132.968 109.987 129.416 106.011C128.342 104.809 127.082 103.47 126.416 102.017C126.687 100.943 126.397 101.363 127.351 100.739C130.677 101.531 137.508 111.889 139.328 114.811C141.587 118.714 143.494 123.12 145.535 127.16C146.426 128.923 147.195 131.171 146.002 132.959C144.807 133.516 145.386 133.491 144.218 133.18C142.6 130.665 142.49 127.2 140.309 124.701C128.055 110.654 109.602 102.722 105.491 82.8927C104.373 77.5021 103.722 68.0113 106.897 63.1393Z" fill="#040402"/>
<path d="M151.205 65.9381C153.833 63.3643 157.17 63.3981 160.721 63.1192C169.616 62.4202 172.737 72.0827 177.608 77.7127C178.37 78.5935 178.707 82.8938 178.608 84.1847C178.007 101.874 169.909 118.418 157.053 130.459C155.628 131.794 153.85 133.368 151.944 133.78L151.465 133.548C151.365 130.899 158.462 125.32 160.497 122.921C171.067 110.46 176.298 96.2945 175.907 79.9613C174.681 77.9538 173.375 76.4563 172.109 74.626C167.158 67.4666 165.236 64.4169 156.049 66.47C153.848 66.7338 153.12 66.9404 151.205 65.9381Z" fill="#040402"/>
<path d="M212.463 174.602C213.912 174.922 213.753 174.636 214.429 175.545C215.852 183.839 214.131 205.726 208.995 213.276C204.277 220.221 195.054 223.921 187.333 218.506C186.312 217.5 185.864 216.773 186.326 215.307C189.558 214.849 193.336 221.612 200.985 216.927C212.222 210.041 211.417 195.131 211.935 183.538C212.057 180.841 211.651 176.761 212.463 174.602Z" fill="#040402"/>
<path d="M153.837 157.647C163.856 157.757 179.374 160.472 189.051 163.779C190.157 164.157 190.487 164.78 190.846 165.729L190.486 166.182C189.046 166.497 188.923 166.396 187.431 165.999L187.026 165.887C177.127 162.983 165.582 160.702 155.127 160.355C154.112 160.321 153.744 160.758 153.073 161.539L152.604 162.091C151.535 162.094 152.062 162.219 151.078 161.343C150.393 159.128 152.004 158.219 153.837 157.647Z" fill="#040402"/>
<path d="M137.302 151.312C138.835 151.592 143.856 152.612 145.145 152.492C147.669 152.256 150.172 151.488 152.954 151.362C153.686 152.009 153.452 152.058 153.601 153.349C149.63 155.196 142.32 155.999 138.29 153.862C137.248 153.309 137.413 152.351 137.302 151.312Z" fill="#040402"/>
<path d="M130.632 161.207C131.913 161.092 132.337 161.08 133.622 161.133L133.417 161.177L134.257 162.086L134.503 161.854L134.545 161.916C133.507 163.326 127.039 165.111 124.482 166.323C123.241 166.996 122.315 167.76 121.029 166.888L121.226 165.98C123.784 162.948 126.99 162.196 130.632 161.207Z" fill="#040402"/>
<path d="M150.18 142.516C151.348 142.367 151.28 142.326 152.386 142.691L152.749 143.421C151.988 145.305 150.948 145.186 149.102 145.479C147.7 145.659 146.9 146.007 146.377 144.537C147.269 142.722 148.327 142.823 150.18 142.516Z" fill="#040402"/>
</svg>
