<svg width="1441" height="720" viewBox="0 0 1441 720" fill="none" xmlns="http://www.w3.org/2000/svg">
<g clip-path="url(#clip0_123_610)">
<rect width="1441" height="720" fill="#F6F0FF"/>
<g opacity="0.4">
<path opacity="0.4" d="M1471.94 167.159C1522.51 123.172 1527.85 46.5157 1483.87 -4.05811C1439.88 -54.632 1363.22 -59.9718 1312.65 -15.985C1262.08 28.0018 1256.74 104.658 1300.72 155.232C1344.71 205.806 1421.37 211.146 1471.94 167.159Z" fill="#C294FF"/>
<path opacity="0.4" d="M1459.82 -20.4301C1484.5 -2.96648 1501.47 23.3738 1507.16 53.0694C1512.85 82.7651 1506.82 113.51 1490.34 138.861C1473.86 164.211 1448.21 182.198 1418.76 189.051C1389.31 195.905 1358.35 191.092 1332.37 175.623C1306.39 160.153 1287.41 135.228 1279.41 106.071C1271.4 76.9145 1274.99 45.7907 1289.43 19.2235C1303.86 -7.34363 1328.02 -27.2913 1356.84 -36.438C1385.66 -45.5848 1416.9 -43.2205 1444.02 -29.8408C1449.51 -27.1028 1454.79 -23.9571 1459.82 -20.4301C1464.02 -17.5052 1468.43 -24.1303 1464.22 -27.0625C1437.69 -45.6539 1404.98 -53.2477 1372.97 -48.2513C1340.96 -43.2548 1312.12 -26.0563 1292.51 -0.262927C1272.91 25.5305 1264.05 57.9147 1267.8 90.0973C1271.55 122.28 1287.61 151.76 1312.62 172.356C1337.64 192.951 1369.65 203.061 1401.96 200.564C1434.26 198.068 1464.34 183.16 1485.89 158.966C1507.44 134.773 1518.79 103.174 1517.55 70.7976C1516.31 38.421 1502.58 7.78228 1479.24 -14.6924C1474.55 -19.1769 1469.52 -23.3113 1464.22 -27.0625C1460.04 -30.0197 1455.63 -23.3923 1459.82 -20.4301Z" fill="#6700C2"/>
<path opacity="0.4" d="M1317.94 23.3975C1330.58 5.40876 1349.32 -7.38399 1370.67 -12.6064C1392.03 -17.8288 1414.55 -15.1263 1434.06 -5.00024C1453.58 5.12578 1468.75 21.9875 1476.78 42.4553C1484.8 62.9232 1485.13 85.6071 1477.7 106.297C1470.26 126.987 1455.58 144.277 1436.36 154.959C1417.15 165.641 1394.71 168.989 1373.21 164.382C1351.72 159.775 1332.62 147.525 1319.47 129.907C1306.32 112.288 1300.01 90.4976 1301.71 68.5789" fill="#C294FF"/>
<path opacity="0.4" d="M1321.26 25.5984C1333.37 8.38536 1351.32 -3.84765 1371.77 -8.83039C1392.23 -13.8131 1413.79 -11.2072 1432.47 -1.49613C1451.14 8.21492 1465.66 24.3716 1473.33 43.9752C1480.99 63.5787 1481.29 85.2979 1474.15 105.102C1467.02 124.906 1452.94 141.449 1434.54 151.662C1416.13 161.875 1394.65 165.064 1374.07 160.637C1353.49 156.209 1335.22 144.467 1322.64 127.588C1310.06 110.709 1304.04 89.8405 1305.68 68.8554C1305.72 67.823 1305.35 66.8164 1304.66 66.0483C1303.97 65.2802 1303.01 64.8106 1301.98 64.7389C1300.95 64.6671 1299.93 64.9987 1299.14 65.6637C1298.35 66.3287 1297.85 67.2749 1297.74 68.3025C1296.01 90.6331 1302.23 112.857 1315.3 131.043C1328.38 149.228 1347.46 162.201 1369.19 167.667C1390.91 173.133 1413.86 170.739 1433.99 160.908C1454.11 151.078 1470.11 134.445 1479.15 113.953C1488.19 93.4612 1489.69 70.4315 1483.39 48.9394C1477.08 27.4473 1463.38 8.87867 1444.7 -3.48069C1426.02 -15.8401 1403.57 -21.1932 1381.32 -18.5928C1359.08 -15.9924 1338.47 -5.60606 1323.14 10.7281C1320.08 14.0283 1317.23 17.5253 1314.63 21.1969C1311.66 25.3719 1318.29 29.7808 1321.26 25.5984Z" fill="#6700C2"/>
<path opacity="0.4" d="M1389.7 66.7128C1386.5 70.8795 1384.16 76.5479 1379.02 78.6123C1371.84 81.4974 1363.3 77.4303 1359.63 70.9588C1355.34 63.3822 1359.53 57.728 1363.85 51.6333C1368.91 44.4987 1377.97 43.6553 1385.07 48.639C1393.45 54.5229 1402.61 41.5053 1394.21 35.6117C1388.32 31.2828 1381.08 29.1931 1373.79 29.7168C1366.5 30.2406 1359.63 33.3435 1354.42 38.4698L1346.66 33.0228C1338.28 27.1389 1329.12 40.1565 1337.52 46.0503L1345.09 51.3671C1343.23 54.7468 1342.13 58.4934 1341.86 62.3441C1341.69 67.0162 1342.56 71.6687 1344.42 75.9569C1346.29 80.2452 1349.09 84.0594 1352.63 87.1171C1355.7 89.9843 1359.34 92.182 1363.31 93.5711C1367.28 94.9603 1371.49 95.5107 1375.69 95.1876C1379.88 94.8644 1383.96 93.6747 1387.67 91.6938C1391.38 89.7129 1394.64 86.9838 1397.24 83.679C1400.42 79.5246 1402.77 73.7803 1407.98 71.8594C1415.48 69.1017 1424.38 74.1245 1427.05 81.3672C1429.73 88.6591 1424.77 93.7948 1420.86 99.3607C1416.44 105.663 1409.57 107.968 1402.69 103.143C1394.31 97.2589 1385.15 110.277 1393.55 116.17C1397.03 118.639 1401 120.327 1405.19 121.119C1409.38 121.911 1413.69 121.788 1417.83 120.758C1423.13 119.269 1427.82 116.152 1431.26 111.848L1438.69 117.064C1447.07 122.947 1456.23 109.93 1447.83 104.036L1440.35 98.7863C1441.86 96.1507 1442.9 93.2738 1443.42 90.2835C1444.09 85.6831 1443.67 80.9903 1442.19 76.5814C1440.72 72.1725 1438.23 68.1701 1434.94 64.895C1422.1 52.033 1401.01 51.9808 1389.7 66.7128Z" fill="white"/>
</g>
<g opacity="0.4">
<path opacity="0.4" d="M145.961 764.228C185.175 730.122 189.315 670.685 155.209 631.472C121.103 592.259 61.6659 588.118 22.4525 622.224C-16.7609 656.33 -20.9013 715.767 13.2047 754.981C47.3107 794.194 106.748 798.334 145.961 764.228Z" fill="#C294FF"/>
<path opacity="0.4" d="M136.563 618.777C155.702 632.318 168.855 652.742 173.267 675.767C177.678 698.792 173.006 722.631 160.228 742.287C147.451 761.942 127.56 775.889 104.727 781.203C81.8928 786.517 57.8885 782.785 37.7454 770.791C17.6022 758.796 2.88416 739.47 -3.32361 716.862C-9.53139 694.255 -6.74692 670.123 4.44615 649.524C15.6392 628.924 34.3718 613.458 56.7172 606.365C79.0627 599.273 103.286 601.106 124.31 611.481C128.571 613.604 132.667 616.043 136.563 618.777C139.82 621.045 143.241 615.908 139.977 613.635C119.402 599.22 94.0442 593.332 69.2225 597.206C44.4009 601.08 22.0437 614.415 6.84018 634.414C-8.36334 654.414 -15.2319 679.524 -12.3249 704.477C-9.41785 729.43 3.03883 752.289 22.4326 768.257C41.8263 784.226 66.6502 792.065 91.6977 790.13C116.745 788.194 140.07 776.635 156.78 757.876C173.49 739.117 182.287 714.616 181.326 689.513C180.365 664.409 169.72 640.652 151.625 623.226C147.981 619.749 144.088 616.543 139.977 613.635C136.737 611.342 133.317 616.481 136.563 618.777Z" fill="#6700C2"/>
<path opacity="0.4" d="M26.5561 652.76C36.3553 638.812 50.882 628.893 67.4402 624.844C83.9983 620.795 101.463 622.89 116.593 630.741C131.724 638.593 143.492 651.667 149.713 667.537C155.935 683.407 156.187 700.995 150.424 717.038C144.66 733.08 133.273 746.486 118.374 754.769C103.476 763.051 86.078 765.648 69.4104 762.075C52.7429 758.503 37.9374 749.005 27.7418 735.344C17.5462 721.683 12.653 704.787 13.9704 687.792" fill="#C294FF"/>
<path opacity="0.4" d="M29.1282 654.466C38.5222 641.12 52.4392 631.635 68.2964 627.771C84.1535 623.908 100.874 625.928 115.354 633.458C129.834 640.988 141.091 653.515 147.035 668.715C152.98 683.915 153.208 700.755 147.677 716.111C142.146 731.466 131.233 744.293 116.962 752.212C102.69 760.131 86.0308 762.603 70.0749 759.171C54.1191 755.738 39.9504 746.633 30.1986 733.546C20.4468 720.458 15.7741 704.278 17.0478 688.006C17.0769 687.206 16.7938 686.425 16.2581 685.83C15.7225 685.234 14.9764 684.87 14.1774 684.815C13.3783 684.759 12.5888 685.016 11.9758 685.532C11.3629 686.047 10.9743 686.781 10.8922 687.578C9.54732 704.892 14.3708 722.124 24.5091 736.224C34.6474 750.325 49.4468 760.384 66.2883 764.622C83.1299 768.86 100.928 767.003 116.532 759.381C132.137 751.759 144.542 738.862 151.552 722.974C158.563 707.085 159.727 689.228 154.838 672.564C149.949 655.9 139.322 641.502 124.839 631.919C110.356 622.336 92.9497 618.186 75.7005 620.202C58.4513 622.218 42.4715 630.271 30.5889 642.936C28.2128 645.495 26.0067 648.207 23.9846 651.053C21.6879 654.291 26.8275 657.709 29.1282 654.466Z" fill="#6700C2"/>
<path opacity="0.4" d="M82.1956 686.345C79.7167 689.576 77.9013 693.971 73.9163 695.572C68.3475 697.809 61.7221 694.655 58.8794 689.637C55.5519 683.763 58.7993 679.379 62.1507 674.653C66.0738 669.121 73.1011 668.467 78.6053 672.331C85.1048 676.893 92.2058 666.8 85.6954 662.23C81.1278 658.874 75.5144 657.254 69.8607 657.66C64.2071 658.066 58.8827 660.472 54.8417 664.446L48.8252 660.223C42.3257 655.661 35.2246 665.754 41.7348 670.324L47.6078 674.447C46.1626 677.067 45.3082 679.972 45.1046 682.958C44.9661 686.58 45.6443 690.188 47.0889 693.513C48.5335 696.838 50.7077 699.795 53.4502 702.166C55.8354 704.389 58.656 706.093 61.7335 707.17C64.8111 708.247 68.0787 708.674 71.3297 708.424C74.5807 708.173 77.7442 707.251 80.6204 705.715C83.4966 704.179 86.0228 702.063 88.0391 699.5C90.5101 696.279 92.3259 691.825 96.3722 690.336C102.181 688.197 109.088 692.092 111.154 697.708C113.234 703.362 109.388 707.344 106.359 711.659C102.928 716.546 97.601 718.333 92.2708 714.592C85.7712 710.03 78.6703 720.123 85.1806 724.693C87.8764 726.607 90.954 727.916 94.2026 728.53C97.4512 729.144 100.794 729.048 104.002 728.25C108.112 727.095 111.755 724.678 114.416 721.341L120.178 725.386C126.678 729.948 133.779 719.854 127.268 715.285L121.469 711.214C122.637 709.17 123.442 706.94 123.847 704.621C124.365 701.054 124.039 697.415 122.897 693.997C121.754 690.578 119.827 687.475 117.269 684.936C107.315 674.963 90.9613 674.922 82.1956 686.345Z" fill="white"/>
</g>
<g opacity="0.6">
<path d="M93.2628 319.715C93.2628 323.749 93.2628 413.742 93.2628 458.235" stroke="#E2E0EB" stroke-width="0.5"/>
<path d="M163.157 319.715C163.157 323.749 163.157 413.742 163.157 458.235" stroke="#E2E0EB" stroke-width="0.5"/>
<path d="M233.052 319.715C233.052 323.749 233.052 413.742 233.052 458.235" stroke="#E2E0EB" stroke-width="0.5"/>
<path d="M302.947 88.3818C302.947 99.1527 302.947 339.438 302.947 458.234" stroke="#E2E0EB" stroke-width="0.5"/>
<path d="M372.842 22.6196C372.842 35.3056 372.842 318.315 372.842 458.234" stroke="#E2E0EB" stroke-width="0.5"/>
<path d="M442.736 22.6196C442.736 35.3056 442.736 318.315 442.736 458.234" stroke="#E2E0EB" stroke-width="0.5"/>
<path d="M512.631 22.6196C512.631 35.3056 512.631 318.315 512.631 458.234" stroke="#E2E0EB" stroke-width="0.5"/>
<path d="M582.526 22.6196C582.526 35.3056 582.526 318.315 582.526 458.234" stroke="#E2E0EB" stroke-width="0.5"/>
<path d="M652.421 22.6196C652.421 35.3056 652.421 318.315 652.421 458.234" stroke="#E2E0EB" stroke-width="0.5"/>
<path d="M722.315 22.6196C722.315 35.3056 722.315 318.315 722.315 458.234" stroke="#E2E0EB" stroke-width="0.5"/>
<path d="M792.21 22.6196C792.21 35.3056 792.21 318.315 792.21 458.234" stroke="#E2E0EB" stroke-width="0.5"/>
<path d="M862.105 22.6196C862.105 35.3056 862.105 318.315 862.105 458.234" stroke="#E2E0EB" stroke-width="0.5"/>
<path d="M931.999 22.6196C931.999 35.3056 931.999 318.315 931.999 458.234" stroke="#E2E0EB" stroke-width="0.5"/>
<path d="M1001.89 319.715C1001.89 323.749 1001.89 413.742 1001.89 458.235" stroke="#E2E0EB" stroke-width="0.5"/>
<path d="M1071.79 319.715C1071.79 323.749 1071.79 413.742 1071.79 458.235" stroke="#E2E0EB" stroke-width="0.5"/>
<path d="M1141.68 319.715C1141.68 323.749 1141.68 413.742 1141.68 458.235" stroke="#E2E0EB" stroke-width="0.5"/>
<path d="M1211.58 319.715C1211.58 323.749 1211.58 413.742 1211.58 458.235" stroke="#E2E0EB" stroke-width="0.5"/>
<path d="M1281.47 319.715C1281.47 323.749 1281.47 413.742 1281.47 458.235" stroke="#E2E0EB" stroke-width="0.5"/>
<path d="M1351.37 319.715C1351.37 323.749 1351.37 413.742 1351.37 458.235" stroke="#E2E0EB" stroke-width="0.5"/>
<path d="M1421.26 319.715C1421.26 323.749 1421.26 413.742 1421.26 458.235" stroke="#E2E0EB" stroke-width="0.5"/>
</g>
<g opacity="0.6">
<path d="M93.2628 596.754C93.2628 592.72 93.2628 502.727 93.2628 458.234" stroke="#E2E0EB" stroke-width="0.5"/>
<path d="M163.157 596.754C163.157 592.72 163.157 502.727 163.157 458.234" stroke="#E2E0EB" stroke-width="0.5"/>
<path d="M233.052 596.754C233.052 592.72 233.052 502.727 233.052 458.234" stroke="#E2E0EB" stroke-width="0.5"/>
<path d="M302.947 828.087C302.947 817.316 302.947 577.031 302.947 458.234" stroke="#E2E0EB" stroke-width="0.5"/>
<path d="M372.842 893.849C372.842 881.163 372.842 598.153 372.842 458.234" stroke="#E2E0EB" stroke-width="0.5"/>
<path d="M442.736 893.849C442.736 881.163 442.736 598.153 442.736 458.234" stroke="#E2E0EB" stroke-width="0.5"/>
<path d="M512.631 893.849C512.631 881.163 512.631 598.153 512.631 458.234" stroke="#E2E0EB" stroke-width="0.5"/>
<path d="M582.526 893.849C582.526 881.163 582.526 598.153 582.526 458.234" stroke="#E2E0EB" stroke-width="0.5"/>
<path d="M652.421 893.849C652.421 881.163 652.421 598.153 652.421 458.234" stroke="#E2E0EB" stroke-width="0.5"/>
<path d="M722.315 893.849C722.315 881.163 722.315 598.153 722.315 458.234" stroke="#E2E0EB" stroke-width="0.5"/>
<path d="M792.21 893.849C792.21 881.163 792.21 598.153 792.21 458.234" stroke="#E2E0EB" stroke-width="0.5"/>
<path d="M862.105 893.849C862.105 881.163 862.105 598.153 862.105 458.234" stroke="#E2E0EB" stroke-width="0.5"/>
<path d="M931.999 893.849C931.999 881.163 931.999 598.153 931.999 458.234" stroke="#E2E0EB" stroke-width="0.5"/>
<path d="M1001.89 596.754C1001.89 592.72 1001.89 502.727 1001.89 458.234" stroke="#E2E0EB" stroke-width="0.5"/>
<path d="M1071.79 596.754C1071.79 592.72 1071.79 502.727 1071.79 458.234" stroke="#E2E0EB" stroke-width="0.5"/>
<path d="M1141.68 596.754C1141.68 592.72 1141.68 502.727 1141.68 458.234" stroke="#E2E0EB" stroke-width="0.5"/>
<path d="M1211.58 596.754C1211.58 592.72 1211.58 502.727 1211.58 458.234" stroke="#E2E0EB" stroke-width="0.5"/>
<path d="M1281.47 596.754C1281.47 592.72 1281.47 502.727 1281.47 458.234" stroke="#E2E0EB" stroke-width="0.5"/>
<path d="M1351.37 596.754C1351.37 592.72 1351.37 502.727 1351.37 458.234" stroke="#E2E0EB" stroke-width="0.5"/>
<path d="M1421.26 596.754C1421.26 592.72 1421.26 502.727 1421.26 458.234" stroke="#E2E0EB" stroke-width="0.5"/>
</g>
</g>
<defs>
<clipPath id="clip0_123_610">
<rect width="1441" height="720" fill="white"/>
</clipPath>
</defs>
</svg>
