<svg width="373" height="120" viewBox="0 0 373 120" fill="none" xmlns="http://www.w3.org/2000/svg">
<path d="M40.8904 0C41.2335 0.131786 43.1151 1.32574 43.4808 1.55925C48.6438 4.84926 53.4303 8.69707 57.7535 13.0332C71.5422 26.8844 79.9639 45.182 81.5173 64.6648C81.8209 68.2349 81.812 71.8435 81.813 75.4225L81.814 86.2995L81.816 120L76.2587 119.991C75.1311 101.073 70.5378 77.941 56.9571 63.6387C52.8418 59.3047 47.1771 56.0624 41.058 55.9942C35.6566 55.9773 30.6691 58.3131 26.682 61.9118C14.8961 72.5493 9.49665 90.4956 7.01027 105.685C6.22537 110.479 5.85801 115.222 5.53165 119.999L0.000788113 119.989L0 88.3951L0.00147997 75.6611C0.00216994 72.0821 -0.0341069 68.5937 0.234196 65.0167C0.622062 59.9454 1.47231 54.9204 2.7745 50.0043C8.37367 28.9547 22.077 10.9771 40.8904 0Z" fill="white"/>
<path d="M37.8287 119.786C50.0155 121.468 61.2948 113.055 63.1525 100.897C65.0109 88.7387 56.759 77.3423 44.6257 75.3099C36.6201 73.9688 28.5126 77.042 23.4086 83.3519C18.3046 89.6618 16.9947 98.2312 19.9813 105.777C22.9679 113.323 29.7882 118.676 37.8287 119.786Z" fill="#80C705"/>
<path d="M166.09 85.0009V73.2772C161.262 76.4495 153.677 76.3116 146.78 77.5529C140.022 78.6563 133.953 81.139 133.953 89.4145C133.953 96.4487 142.918 98.5176 148.435 98.5176C155.332 98.5176 166.09 94.9316 166.09 85.0009ZM181.813 56.4502V93.1385C181.813 97.0004 182.641 98.5176 185.537 98.5176C186.503 98.5176 187.744 98.5176 189.399 98.2418V109.138C187.055 109.965 182.089 110.931 179.469 110.931C173.124 110.931 168.573 108.724 167.331 102.242C161.125 108.31 151.056 110.931 142.642 110.931C129.815 110.931 118.23 104.035 118.23 90.1041C118.23 72.3117 132.436 69.4153 145.677 67.8981C156.987 65.8292 167.055 67.0705 167.055 57.8295C167.055 49.6919 158.642 48.1747 152.297 48.1747C143.47 48.1747 137.263 51.7607 136.574 59.4846H120.85C121.954 41.1404 137.539 35.7613 153.263 35.7613C167.193 35.7613 181.813 41.4163 181.813 56.4502ZM193.146 109V10.5209H208.869V109H193.146ZM212.829 49.416V37.6923H224.691V16.3138H240.414V37.6923H254.621V49.416H240.414V87.4836C240.414 93.9661 240.966 97.2763 248 97.2763C250.207 97.2763 252.414 97.2763 254.621 96.7246V108.862C251.172 109.138 247.862 109.69 244.414 109.69C228.001 109.69 224.967 103.345 224.691 91.4834V49.416H212.829ZM303.93 85.0009V73.2772C299.103 76.4495 291.517 76.3116 284.62 77.5529C277.862 78.6563 271.793 81.139 271.793 89.4145C271.793 96.4487 280.758 98.5176 286.275 98.5176C293.172 98.5176 303.93 94.9316 303.93 85.0009ZM319.654 56.4502V93.1385C319.654 97.0004 320.481 98.5176 323.378 98.5176C324.343 98.5176 325.584 98.5176 327.239 98.2418V109.138C324.895 109.965 319.929 110.931 317.309 110.931C310.964 110.931 306.413 108.724 305.171 102.242C298.965 108.31 288.896 110.931 280.483 110.931C267.655 110.931 256.07 104.035 256.07 90.1041C256.07 72.3117 270.276 69.4153 283.517 67.8981C294.827 65.8292 304.895 67.0705 304.895 57.8295C304.895 49.6919 296.482 48.1747 290.137 48.1747C281.31 48.1747 275.103 51.7607 274.414 59.4846H258.69C259.794 41.1404 275.379 35.7613 291.103 35.7613C305.033 35.7613 319.654 41.4163 319.654 56.4502ZM330.572 109V37.6923H345.33V51.4849H345.606C347.399 43.899 356.778 35.7613 366.433 35.7613C370.019 35.7613 370.984 36.0372 372.364 36.1751V51.347C370.157 51.0711 367.812 50.6573 365.605 50.6573C354.847 50.6573 346.296 59.3467 346.296 75.0702V109H330.572Z" fill="white"/>
</svg>
